<svg xmlns="http://www.w3.org/2000/svg" xmlns:xlink="http://www.w3.org/1999/xlink" width="16" height="16" viewBox="0 0 16 16">
    <defs>
        <path id="prefix__a" d="M12.286 10l-.001 1.714H14v.572l-1.715-.001V14h-.57l-.001-1.715H10v-.57l1.714-.001V10h.572zM7.789 3C9.559 3 11 4.432 11 6.193c0 1.207-.677 2.26-1.672 2.802.398.148.77.348 1.11.584l-.395.528c-.6-.408-1.308-.689-2.069-.729-.062.004-.122.01-.185.01s-.124-.006-.186-.01C5.411 9.493 3.661 11.605 3.661 13H3c0-1.352 1.32-3.286 3.25-4.005-.996-.543-1.672-1.595-1.672-2.802C4.578 4.433 6.018 3 7.789 3zm0 .657c-1.406 0-2.55 1.138-2.55 2.536 0 1.357 1.077 2.457 2.422 2.525.043-.001.084-.007.128-.007.043 0 .085.006.127.007C9.262 8.65 10.34 7.55 10.34 6.193c0-1.398-1.144-2.536-2.55-2.536z"/>
    </defs>
    <g fill="none" fill-rule="evenodd">
        <use fill="#2B2B2B" xlink:href="#prefix__a"/>
    </g>
</svg>
