<svg xmlns="http://www.w3.org/2000/svg" width="24" height="24" viewBox="0 0 24 24">
    <path fill="#797979" fill-rule="evenodd" d="M12 4c1.44 0 2.774.36 4 1.08A8.084 8.084 0 0 1 18.92 8 7.755 7.755 0 0 1 20 12c0 1.44-.36 2.774-1.08 4A8.084 8.084 0 0 1 16 18.92 7.755 7.755 0 0 1 12 20c-1.44 0-2.774-.36-4-1.08A8.084 8.084 0 0 1 5.08 16 7.755 7.755 0 0 1 4 12c0-1.44.36-2.774 1.08-4A8.084 8.084 0 0 1 8 5.08 7.755 7.755 0 0 1 12 4zm6.968 8a6.8 6.8 0 0 0-.936-3.5 6.936 6.936 0 0 0-2.548-2.532 6.856 6.856 0 0 0-3.5-.936 6.77 6.77 0 0 0-3.484.936 6.936 6.936 0 0 0-2.532 2.548 6.856 6.856 0 0 0-.936 3.5c0 1.258.312 2.42.936 3.484a6.936 6.936 0 0 0 2.548 2.532 6.856 6.856 0 0 0 3.5.936 6.77 6.77 0 0 0 3.484-.936 6.936 6.936 0 0 0 2.532-2.548A6.826 6.826 0 0 0 18.968 12zm-7.42.935a.317.317 0 0 1-.16-.29V7.484c0-.108.037-.2.112-.274a.373.373 0 0 1 .274-.113h.452c.107 0 .199.037.274.113a.373.373 0 0 1 .113.274v4.71l2.29 1.677a.342.342 0 0 1 .145.242.376.376 0 0 1-.08.274l-.258.387a.353.353 0 0 1-.258.145.401.401 0 0 1-.29-.08l-2.614-1.904z"/>
</svg>
