<svg xmlns="http://www.w3.org/2000/svg" width="24" height="24" viewBox="0 0 24 24">
    <path fill="#797979" fill-rule="evenodd" d="M18.25 18.75v-.547c0-.091-.032-.168-.096-.232s-.141-.096-.232-.096h-.547V5.406c0-.182-.064-.337-.191-.465-.128-.127-.283-.191-.465-.191H7.53c-.182 0-.337.064-.465.191-.127.128-.191.283-.191.465v12.469h-.547c-.091 0-.168.032-.232.096S6 18.112 6 18.203v.547h12.25zm-7-.875h-3.5V5.625h8.75v12.25H13v-2.324c0-.091-.032-.169-.096-.233-.064-.063-.141-.095-.232-.095h-1.094c-.091 0-.169.032-.232.095-.064.064-.096.142-.096.233v2.324zm-.328-8.777c.091 0 .168-.032.232-.096s.096-.141.096-.232V7.676c0-.091-.032-.169-.096-.233-.064-.063-.141-.095-.232-.095H9.828c-.091 0-.169.032-.232.095-.064.064-.096.142-.096.233V8.77c0 .09.032.168.096.232.063.064.141.096.232.096h1.094zm3.5 0c.091 0 .168-.032.232-.096s.096-.141.096-.232V7.676c0-.091-.032-.169-.096-.233-.064-.063-.141-.095-.232-.095h-1.094c-.091 0-.169.032-.232.095-.064.064-.096.142-.096.233V8.77c0 .09.032.168.096.232.063.064.141.096.232.096h1.094zm-3.5 2.625c.091 0 .168-.032.232-.096s.096-.141.096-.232V10.3c0-.091-.032-.169-.096-.233-.064-.063-.141-.095-.232-.095H9.828c-.091 0-.169.032-.232.095-.064.064-.096.142-.096.233v1.094c0 .09.032.168.096.232.063.064.141.096.232.096h1.094zm3.5 0c.091 0 .168-.032.232-.096s.096-.141.096-.232V10.3c0-.091-.032-.169-.096-.233-.064-.063-.141-.095-.232-.095h-1.094c-.091 0-.169.032-.232.095-.064.064-.096.142-.096.233v1.094c0 .09.032.168.096.232.063.064.141.096.232.096h1.094zm-3.5 2.625c.091 0 .168-.032.232-.096s.096-.141.096-.232v-1.094c0-.091-.032-.169-.096-.233-.064-.063-.141-.095-.232-.095H9.828c-.091 0-.169.032-.232.095-.064.064-.096.142-.096.233v1.094c0 .09.032.168.096.232.063.064.141.096.232.096h1.094zm3.5 0c.091 0 .168-.032.232-.096s.096-.141.096-.232v-1.094c0-.091-.032-.169-.096-.233-.064-.063-.141-.095-.232-.095h-1.094c-.091 0-.169.032-.232.095-.064.064-.096.142-.096.233v1.094c0 .09.032.168.096.232.063.064.141.096.232.096h1.094z"/>
</svg>
