<svg xmlns="http://www.w3.org/2000/svg" width="16" height="16" viewBox="0 0 16 16">
    <path fill="#2B2B2B" fill-rule="evenodd" d="M8 2.667c.96 0 1.85.24 2.667.72.817.48 1.466 1.13 1.946 1.946.48.818.72 1.706.72 2.667 0 .96-.24 1.85-.72 2.667-.48.817-1.13 1.466-1.946 1.946-.818.48-1.706.72-2.667.72-.96 0-1.85-.24-2.667-.72-.817-.48-1.466-1.13-1.946-1.946-.48-.818-.72-1.706-.72-2.667 0-.96.24-1.85.72-2.667.48-.817 1.13-1.466 1.946-1.946.818-.48 1.706-.72 2.667-.72zM12.645 8c0-.846-.208-1.624-.623-2.333-.416-.71-.983-1.273-1.7-1.689-.716-.415-1.494-.623-2.333-.623-.838 0-1.613.208-2.322.623-.71.416-1.273.983-1.689 1.7-.415.716-.623 1.494-.623 2.333 0 .838.208 1.613.623 2.322.416.71.983 1.273 1.7 1.689.716.415 1.494.623 2.333.623.838 0 1.613-.208 2.322-.623.71-.416 1.273-.983 1.689-1.7.415-.716.623-1.49.623-2.322zM7.7 8.624c-.072-.043-.108-.108-.108-.194V4.99c0-.072.025-.133.076-.184.05-.05.11-.075.182-.075h.302c.071 0 .132.025.182.075.05.05.076.112.076.183v3.14l1.526 1.118c.058.043.09.097.097.162.007.064-.01.125-.054.182l-.172.258c-.043.058-.1.09-.172.097-.071.007-.136-.01-.193-.054L7.699 8.624z"/>
</svg>
