<svg xmlns="http://www.w3.org/2000/svg" xmlns:xlink="http://www.w3.org/1999/xlink" width="16" height="16" viewBox="0 0 16 16">
    <defs>
        <path id="prefix__a" d="M2.515 6.314C2.515 5.008 3.63 3.946 5 3.946c1.37 0 2.485 1.062 2.485 2.368 0 1.266-1.05 2.293-2.361 2.356-.041-.001-.082-.007-.124-.007-.042 0-.083.006-.124.007-1.312-.063-2.361-1.09-2.361-2.356M6.5 8.929C7.47 8.422 8.13 7.44 8.13 6.314c0-1.644-1.404-2.98-3.129-2.98S1.871 4.67 1.871 6.313c0 1.126.659 2.108 1.629 2.615-1.88.67-3.167 2.476-3.167 3.738h.644c0-1.302 1.706-3.273 3.842-3.38.06.002.12.008.181.008s.12-.006.18-.009c2.137.108 3.843 2.079 3.843 3.38h.644c0-1.26-1.287-3.066-3.167-3.737"/>
    </defs>
    <g fill="none" fill-rule="evenodd" transform="translate(3)">
        <use fill="#2B2B2B" xlink:href="#prefix__a"/>
    </g>
</svg>
