<svg xmlns="http://www.w3.org/2000/svg" width="24" height="24" viewBox="0 0 24 24">
    <path fill="#745DAD" d="M14.531 9c-.25-1.417-.625-2.562-1.125-3.437S12.354 4.25 11.75 4.25c-.604 0-1.156.438-1.656 1.313S9.229 7.583 9 9h5.531zm4.375 0c-.458-1.062-1.12-1.984-1.984-2.766-.865-.78-1.85-1.338-2.953-1.671.729 1.041 1.25 2.52 1.562 4.437h3.375zM7.97 9c.291-1.917.812-3.396 1.562-4.437-1.104.333-2.088.89-2.953 1.671C5.714 7.016 5.052 7.938 4.594 9h3.375zm6.687 5c.063-.667.094-1.333.094-2s-.031-1.333-.094-2H8.844c-.063.667-.094 1.333-.094 2s.031 1.333.094 2h5.812zm4.563 0c.187-.667.281-1.333.281-2s-.094-1.333-.281-2h-3.563c.063.688.094 1.354.094 2 0 .646-.031 1.313-.094 2h3.563zM7.844 14c-.063-.708-.094-1.375-.094-2 0-.646.031-1.312.094-2H4.28C4.094 10.688 4 11.354 4 12c0 .646.094 1.313.281 2h3.563zm3.906 5.75c.604 0 1.156-.438 1.656-1.313.5-.874.865-2.02 1.094-3.437H9c.23 1.417.594 2.563 1.094 3.437.5.875 1.052 1.313 1.656 1.313zm2.219-.313c1.104-.333 2.088-.89 2.953-1.671.864-.782 1.526-1.703 1.984-2.766h-3.375c-.291 1.917-.812 3.396-1.562 4.437zm-4.438 0c-.729-1.041-1.25-2.52-1.562-4.437H4.594c.458 1.063 1.12 1.984 1.984 2.766.865.78 1.85 1.338 2.953 1.671z"/>
</svg>
