<svg xmlns="http://www.w3.org/2000/svg" width="24" height="24" viewBox="0 0 24 24">
    <g fill="none" fill-rule="evenodd">
        <path fill="#FF9555" fill-rule="nonzero" d="M22.196 8.071c.075 0 .136-.03.18-.089l.566-.692c.045-.06.064-.126.056-.2-.007-.075-.034-.135-.079-.18l-5.718-4.664C16.99 2.082 16.756 2 16.5 2c-.256 0-.482.082-.678.246L10.08 6.91c-.045.044-.072.104-.08.178-.007.075.012.142.057.201l.565.692c.045.06.106.09.181.09s.143-.023.203-.068l5.312-4.308c.06-.044.12-.067.181-.067.06 0 .12.023.18.067l5.313 4.308c.06.045.128.067.203.067zM15.144 12c.075 0 .14-.026.192-.078.053-.052.08-.115.08-.19v-2.5c0-.074.025-.138.078-.19.053-.052.117-.078.192-.078h1.628c.075 0 .14.026.192.078.053.052.079.116.079.19v2.5c0 .075.026.138.08.19.052.052.116.078.191.078h2.622c.15 0 .279-.052.384-.156.106-.104.159-.23.159-.38V8.272c0-.089-.03-.163-.09-.223l-4.25-3.437c-.06-.045-.12-.067-.181-.067-.06 0-.12.022-.18.067l-4.25 3.437c-.06.06-.09.134-.09.223v3.192c0 .15.052.276.158.38.105.104.233.156.384.156h2.622zM13.196 17.071c.075 0 .136-.03.18-.089l.566-.692c.045-.06.064-.126.056-.2-.007-.075-.034-.135-.079-.18l-5.718-4.664C7.99 11.082 7.756 11 7.5 11c-.256 0-.482.082-.678.246L1.08 15.91c-.045.044-.072.104-.08.178-.007.075.012.142.057.201l.565.692c.045.06.106.09.181.09s.143-.023.203-.068l5.312-4.308c.06-.044.12-.067.181-.067.06 0 .12.023.18.067l5.313 4.308c.06.045.128.067.203.067zM6.144 21c.075 0 .14-.026.192-.078.053-.052.08-.115.08-.19v-2.5c0-.074.025-.138.078-.19.053-.052.117-.078.192-.078h1.628c.075 0 .14.026.192.078.053.052.079.116.079.19v2.5c0 .075.026.138.08.19.052.052.116.078.191.078h2.622c.15 0 .279-.052.384-.156.106-.104.159-.23.159-.38v-3.192c0-.089-.03-.163-.09-.223l-4.25-3.437c-.06-.045-.12-.067-.181-.067-.06 0-.12.022-.18.067l-4.25 3.437c-.06.06-.09.134-.09.223v3.192c0 .15.052.276.158.38.105.104.233.156.384.156h2.622z"/>
        <g>
            <path stroke="#FF9555" d="M6 0v5c0 .552-.448 1-1 1H3h0" transform="translate(14 14)"/>
            <path fill="#FF9555" d="M1.5 4.5L3 7.5 0 7.5z" transform="translate(14 14) rotate(-90 1.5 6)"/>
        </g>
        <g>
            <path stroke="#FF9555" d="M6 0v5c0 .552-.448 1-1 1H3h0" transform="rotate(-180 4.5 5.5)"/>
            <path fill="#FF9555" d="M1.5 4.5L3 7.5 0 7.5z" transform="rotate(-180 4.5 5.5) rotate(-90 1.5 6)"/>
        </g>
    </g>
</svg>
