<svg xmlns="http://www.w3.org/2000/svg" width="24" height="24" viewBox="0 0 24 24">
    <path fill="#43D4A8" fill-rule="evenodd" d="M20 18.5c0 .417-.146.77-.438 1.063A1.447 1.447 0 0 1 18.5 20h-13c-.417 0-.77-.146-1.063-.438A1.447 1.447 0 0 1 4 18.5v-8.219c0-.5.188-.896.563-1.187.854-.667 2.572-1.938 5.156-3.813L10 5.063c.417-.334.75-.563 1-.688.396-.25.73-.375 1-.375s.604.125 1 .375c.25.125.583.354 1 .688l.281.218c2.584 1.875 4.302 3.146 5.156 3.813.375.291.563.687.563 1.187V18.5zm-2.063-6.156a.392.392 0 0 0-.156-.094.207.207 0 0 0-.187.031L14 14.937c-.417.334-.75.563-1 .688-.396.25-.73.375-1 .375s-.604-.125-1-.375c-.25-.125-.583-.354-1-.688l-3.594-2.656a.207.207 0 0 0-.187-.031.392.392 0 0 0-.157.094l-.28.437c-.042.042-.058.1-.048.172.01.073.037.13.079.172l3.625 2.625c.479.375.874.646 1.187.813.5.291.958.437 1.375.437.417 0 .875-.146 1.375-.438.313-.166.708-.437 1.188-.812l3.624-2.625a.294.294 0 0 0 .079-.172c.01-.073-.006-.13-.047-.172l-.282-.437z"/>
</svg>
