<svg xmlns="http://www.w3.org/2000/svg" width="24" height="24" viewBox="0 0 24 24">
    <path fill="#F27499" fill-rule="evenodd" d="M7.875 2l8.25.125c.52 0 .964.182 1.328.547.365.364.547.807.547 1.328v16.25c0 .52-.182.964-.547 1.328a1.808 1.808 0 01-1.328.547L7.875 22c-.52 0-.964-.182-1.328-.547A1.808 1.808 0 016 20.125V3.875c0-.52.182-.964.547-1.328A1.808 1.808 0 017.875 2zM12 18c-.339 0-.632.124-.879.371s-.371.54-.371.879c0 .339.124.632.371.879s.54.371.879.371c.339 0 .632-.124.879-.371s.371-.54.371-.879c0-.339-.124-.632-.371-.879A1.201 1.201 0 0012 18zm4-14H8v13h8V4z"/>
</svg>
