<svg xmlns="http://www.w3.org/2000/svg" width="24" height="24" viewBox="0 0 24 24">
    <path fill="#FF863E" fill-rule="nonzero" d="M19.734 3.356c.305-.165.604-.147.897.052.293.2.416.475.369.826l-2.531 15.188a.84.84 0 0 1-.44.598c-.246.14-.486.152-.72.035l-4.395-1.828-2.215 2.707a.75.75 0 0 1-.615.316.934.934 0 0 1-.633-.229c-.176-.152-.264-.369-.264-.65V17.56L17.66 7.223c.07-.094.059-.182-.035-.264-.094-.082-.188-.088-.281-.018l-10.09 8.895-3.727-1.547c-.328-.14-.504-.387-.527-.738-.023-.352.129-.61.457-.774l16.277-9.421z"/>
</svg>
