<svg xmlns="http://www.w3.org/2000/svg" width="24" height="24" viewBox="0 0 24 24">
    <path fill="#60CAF4" fill-rule="evenodd" d="M21.033 8.016c.025.099.037.26.037.482 0 1.781-.433 3.5-1.299 5.158-.89 1.757-2.14 3.155-3.748 4.194-1.756 1.162-3.772 1.744-6.048 1.744-2.177 0-4.169-.582-5.975-1.744.272.024.581.037.928.037 1.806 0 3.426-.557 4.861-1.67-.866 0-1.627-.254-2.282-.76a3.875 3.875 0 0 1-1.355-1.912c.248.025.483.037.705.037.347 0 .693-.037 1.04-.111a3.926 3.926 0 0 1-2.227-1.373 3.736 3.736 0 0 1-.89-2.45v-.074a3.668 3.668 0 0 0 1.743.52 4.323 4.323 0 0 1-1.261-1.41 3.743 3.743 0 0 1-.483-1.874c0-.68.186-1.33.557-1.949A10.745 10.745 0 0 0 8.88 7.756a10.786 10.786 0 0 0 4.472 1.187 5.409 5.409 0 0 1-.075-.89c0-.693.173-1.342.52-1.948a3.813 3.813 0 0 1 1.41-1.43 3.764 3.764 0 0 1 1.93-.519c.569 0 1.094.112 1.577.334.482.223.909.52 1.28.89a7.928 7.928 0 0 0 2.486-.927c-.296.916-.865 1.633-1.707 2.152A8.37 8.37 0 0 0 23 5.975a8.565 8.565 0 0 1-1.967 2.04z"/>
</svg>
