<svg xmlns="http://www.w3.org/2000/svg" width="24" height="24" viewBox="0 0 24 24">
    <path fill="#745DAD" fill-rule="nonzero" d="M14.531 9c-.25-1.417-.625-2.562-1.125-3.437S12.354 4.25 11.75 4.25c-.604 0-1.156.438-1.656 1.313S9.229 7.583 9 9h5.531zm4.375 0a7.91 7.91 0 0 0-1.984-2.766 7.654 7.654 0 0 0-2.953-1.671c.729 1.041 1.25 2.52 1.562 4.437h3.375zM7.97 9c.291-1.917.812-3.396 1.562-4.437a7.654 7.654 0 0 0-2.953 1.671A7.91 7.91 0 0 0 4.594 9h3.375zm6.687 5a21.416 21.416 0 0 0 0-4H8.844a21.415 21.415 0 0 0 0 4h5.812zm4.563 0a7.357 7.357 0 0 0 .281-2c0-.667-.094-1.333-.281-2h-3.563a22.1 22.1 0 0 1 .094 2 22.1 22.1 0 0 1-.094 2h3.563zM7.844 14a22.818 22.818 0 0 1-.094-2c0-.646.031-1.312.094-2H4.28A7.588 7.588 0 0 0 4 12c0 .646.094 1.313.281 2h3.563zm3.906 5.75c.604 0 1.156-.438 1.656-1.313.5-.874.865-2.02 1.094-3.437H9c.23 1.417.594 2.563 1.094 3.437.5.875 1.052 1.313 1.656 1.313zm2.219-.313a7.654 7.654 0 0 0 2.953-1.671A7.91 7.91 0 0 0 18.906 15h-3.375c-.291 1.917-.812 3.396-1.562 4.437zm-4.438 0c-.729-1.041-1.25-2.52-1.562-4.437H4.594a7.91 7.91 0 0 0 1.984 2.766 7.654 7.654 0 0 0 2.953 1.671z"/>
</svg>
